<svg xmlns="http://www.w3.org/2000/svg" viewBox="0 0 32.01 32">
    <defs>
        <style>
            .cls-1 {
                fill: #0d1b2a;
            }
            .cls-2 {
                fill: #3b65c4;
            }
            @media ( prefers-color-scheme: dark ) {
                .cls-1 {
                    fill: #F7F7F6;
                }
            }
        </style>
    </defs>
    <path class="cls-1"
          d="M24.23,32V30.71h.23a4.5,4.5,0,0,0,.68-.05,1,1,0,0,0,.48-.19.84.84,0,0,0,.28-.41,2,2,0,0,0,.1-.71V17L21.09,32H19.43L14.28,17V29.13a2.12,2.12,0,0,0,.13.83,1,1,0,0,0,.35.47,1.2,1.2,0,0,0,.57.22,4.34,4.34,0,0,0,.76.06h.14V32h-6V30.71h1a2.46,2.46,0,0,0,.49-.05.84.84,0,0,0,.4-.2.9.9,0,0,0,.27-.44,2.63,2.63,0,0,0,.09-.76V17.39a2.69,2.69,0,0,0-.09-.78,1,1,0,0,0-.27-.45.84.84,0,0,0-.4-.2,1.88,1.88,0,0,0-.49-.06h-1V14.62h7l4,11.76,3.88-11.76H32V15.9H31a1.86,1.86,0,0,0-.48.06.69.69,0,0,0-.4.22,1.05,1.05,0,0,0-.26.47,3.08,3.08,0,0,0-.09.83V29.13a3.08,3.08,0,0,0,.09.83,1.05,1.05,0,0,0,.26.47.69.69,0,0,0,.4.22,1.86,1.86,0,0,0,.48.06h1V32Z"
          transform="translate(0 0)"/>
    <path class="cls-2"
          d="M10.73,4.8c.28-.3.52-.58.72-.82a6.3,6.3,0,0,0,.46-.68,2.48,2.48,0,0,0,.25-.6,2.23,2.23,0,0,0,.08-.56.6.6,0,0,0-.34-.6,2.76,2.76,0,0,0-1.14-.17V0h7.15V1.37a3.12,3.12,0,0,0-1,.17,4.41,4.41,0,0,0-1,.47,7.46,7.46,0,0,0-.92.74c-.3.28-.6.6-.91.94L10.63,7.52l4.91,7.8a8,8,0,0,0,.74,1A4.32,4.32,0,0,0,17,17a2.29,2.29,0,0,0,.73.34,3,3,0,0,0,.81.11h.11v1.4H17.23q-1,0-1.77-.06a8.94,8.94,0,0,1-1.33-.2,4.61,4.61,0,0,1-1-.32,3.73,3.73,0,0,1-.72-.47,4.13,4.13,0,0,1-.56-.62c-.17-.23-.33-.48-.5-.75L7.8,10.36l-1.17.91v4.46a3.05,3.05,0,0,0,.11.9,1.22,1.22,0,0,0,.29.52.91.91,0,0,0,.44.24,2.35,2.35,0,0,0,.54.06H9.12v1.4H0v-1.4H1.11a2.89,2.89,0,0,0,.53-.05,1,1,0,0,0,.43-.22,1,1,0,0,0,.29-.47,2.76,2.76,0,0,0,.11-.84V3a2.74,2.74,0,0,0-.11-.85,1,1,0,0,0-.29-.48,1,1,0,0,0-.43-.23,2.2,2.2,0,0,0-.53-.06H0V0H9.12V1.39H8a2.35,2.35,0,0,0-.54.06A.91.91,0,0,0,7,1.69a1.22,1.22,0,0,0-.29.52,3.05,3.05,0,0,0-.11.9V9.27Z"
          transform="translate(0 0)"/>
</svg>