<?xml version="1.0" encoding="utf-8"?>
<!-- Generator: Adobe Illustrator 25.2.0, SVG Export Plug-In . SVG Version: 6.00 Build 0)  -->
<svg version="1.1" id="Layer_1" xmlns="http://www.w3.org/2000/svg" xmlns:xlink="http://www.w3.org/1999/xlink" x="0px" y="0px"
	 viewBox="0 0 700 700" style="enable-background:new 0 0 700 700;" xml:space="preserve">
<g>
	<path d="M486.6,490.4h-3.1c-47.3,0-85.4-36.5-86.9-83.8c-1.6-48.1,35.7-88.5,83.8-90c48.1-1.6,88.5,35.7,90,83.8
		C571.9,448.5,533.9,488.9,486.6,490.4L486.6,490.4z M523.8,312h0.8c17.8-0.8,31-15.5,30.3-32.6c-0.8-17.1-14.7-30.3-31.8-30.3h-0.8
		c-8.5,0-16.3,3.9-21.7,10.1c-5.4,6.2-8.5,14-8.5,22.5C492.8,298.8,506.8,312,523.8,312L523.8,312z M156,525.4
		c-5.4,12.4-17.8,21-31.8,21c-4.7,0-9.3-0.8-14-3.1c-8.5-3.9-14.7-10.9-18.6-19.4c-3.1-8.5-3.1-17.8,0.8-26.4
		c5.4-12.4,17.8-21,31.8-21c4.7,0,9.3,0.8,14,3.1c8.5,3.9,14.7,10.9,18.6,19.4C159.9,507.5,159.9,516.8,156,525.4z M142,504.4
		c-1.6-4.7-5.4-8.5-10.1-10.9c-2.3-0.8-4.7-1.6-7.8-1.6c-7.8,0-14.7,4.7-17.8,11.6c-2.3,4.7-2.3,10.1,0,14.7
		c2.3,4.7,5.4,8.5,10.1,10.9c9.3,3.9,21-0.8,24.8-10.1C144.4,514.5,144.4,509.1,142,504.4L142,504.4z M607.6,269.3h-1.6
		c-27.9,0.8-50.4,24.8-49.7,52.8c0.8,27.9,23.3,49.7,51.2,49.7h1.6c14-0.8,26.4-6.2,35.7-16.3c9.3-10.1,14-23.3,14-36.5
		C657.3,291,635.6,269.3,607.6,269.3L607.6,269.3z M175.4,107.9c-1.6-9.3,0.8-18.6,6.2-26.4c5.4-7.8,13.2-12.4,22.5-14.7
		c19.4-3.1,37.2,10.1,40.4,28.7c3.1,19.4-9.3,37.2-28.7,40.4c-2.3,0-3.9,0.8-6.2,0.8C192.5,137.4,177.7,124.9,175.4,107.9
		L175.4,107.9z M228.9,98.6c0-1.6-0.8-3.1-1.6-4.7l-25.6,25.6c3.1,1.6,7,2.3,10.9,1.6C223.5,119.5,231.3,109.4,228.9,98.6
		L228.9,98.6z M190.1,105.5c0.8,2.3,1.6,4.7,2.3,7l27.2-27.2c-3.1-1.6-6.2-3.1-10.1-3.1h-3.1C201,83,197.1,86.1,194,90
		C190.9,94.7,189.4,100.1,190.1,105.5L190.1,105.5z M98.6,199.4c-5.4-31,15.5-61.3,46.6-66c3.1-0.8,7-0.8,10.1-0.8
		c27.9,0,52,20.2,56.6,47.3c2.3,14.7-0.8,30.3-9.3,42.7c-8.5,12.4-21.7,21-37.2,23.3c-3.1,0.8-6.2,0.8-10.1,0.8
		C127.3,247.6,103.2,227.4,98.6,199.4L98.6,199.4z M196.3,182.4c0-0.8-0.8-1.6-0.8-2.3l-50.4,50.4c3.1,0.8,6.2,1.6,9.3,1.6
		c2.3,0,4.7,0,7-0.8c10.9-1.6,21-7.8,27.2-17.1C195.6,204.9,198.7,194,196.3,182.4L196.3,182.4z M174.6,152.9l-55.9,55.9
		c3.9,7,9.3,13.2,15.5,17.1l57.4-57.4C187,161.4,181.6,156,174.6,152.9z M114.1,196.3l48.1-48.1c-2.3,0-4.7-0.8-7-0.8
		c-2.3,0-4.7,0-7,0.8C125.7,152.1,110.2,173.8,114.1,196.3L114.1,196.3z M257.7,531.6c7.8,12.4,9.3,27.2,6.2,41.1
		c-6.2,24.1-27.9,41.1-52.8,41.1c-4.7,0-8.5-0.8-13.2-1.6c-28.7-7-46.6-36.5-39.6-66c6.2-24.1,27.9-41.1,52.8-41.1
		c4.7,0,8.5,0.8,13.2,1.6C238.3,509.9,249.9,519.2,257.7,531.6L257.7,531.6z M244.5,539.3c-5.4-8.5-14-14.7-24.1-17.8
		c-3.1-0.8-6.2-0.8-9.3-0.8c-17.8,0-33.4,12.4-37.2,29.5c-5.4,21,7.8,41.9,28.7,46.6c3.1,0.8,6.2,0.8,9.3,0.8
		c17.8,0,33.4-12.4,37.2-29.5C251.4,558.7,249.9,547.9,244.5,539.3L244.5,539.3z M555.6,480.4h-1.6c-21.7,0.8-38.8,18.6-38,40.4
		c0.8,21,17.8,38,38.8,38h1.6c21.7-0.8,38.8-18.6,38-40.4C594.4,496.7,577.4,480.4,555.6,480.4L555.6,480.4z M343,476.5
		c3.9,10.9,3.9,22.5-0.8,32.6c-7,15.5-22.5,25.6-39.6,25.6c-6.2,0-11.6-1.6-17.1-3.9c-10.9-4.7-18.6-13.2-22.5-24.1
		c-3.9-10.9-3.9-22.5,0.8-32.6c7-15.5,22.5-25.6,39.6-25.6c6.2,0,11.6,1.6,17.1,3.9C331.4,457.9,339.1,466.4,343,476.5z M329,482.7
		c-2.3-7-7.8-12.4-14.7-15.5c-3.9-1.6-7-2.3-10.9-2.3c-10.9,0-21,6.2-24.8,16.3c-3.1,7-3.1,14-0.8,21c2.3,7,7.8,12.4,14.7,15.5
		c3.9,1.6,7,2.3,10.9,2.3c10.9,0,21-6.2,24.8-16.3C331.4,496.7,331.4,489.7,329,482.7z M200.2,326.7c10.9,0,21.7,2.3,31.8,7
		c19.4,8.5,34.9,24.1,42.7,44.2c7.8,20.2,7,41.9-1.6,61.3c-12.4,28.7-41.1,48.1-72.9,48.1c-10.9,0-21.7-2.3-31.8-7
		c-40.4-17.8-59-65.2-41.1-105.5C139.7,345.3,168.4,326.7,200.2,326.7L200.2,326.7z M225.8,347.7c-7.8-3.9-16.3-5.4-25.6-5.4
		c-25.6,0-48.9,14.7-59,38.8c-14,32.6,0.8,70.6,33.4,84.6c8.5,3.9,17.1,5.4,25.6,5.4c25.6,0,48.9-14.7,59-38.8
		c7-15.5,7-33.4,0.8-48.9C253.8,367.8,242.1,353.9,225.8,347.7L225.8,347.7z M328.3,287.9c-54.3,0-98.6-44.2-98.6-98.6
		s44.2-98.6,98.6-98.6s98.6,44.2,98.6,98.6C426.8,243.7,382.6,287.9,328.3,287.9z M329,272.4l82.3-82.3v-0.8
		c0-8.5-1.6-17.1-3.9-25.6L302.7,268.5C310.4,271.6,319,272.4,329,272.4C328.3,272.4,328.3,272.4,329,272.4L329,272.4z M388.8,133.5
		L271.6,250.7c5.4,5.4,12.4,10.1,19.4,13.2l111-111C398.9,145.9,394.2,138.9,388.8,133.5L388.8,133.5z M380.3,125.7
		c-5.4-4.7-10.9-7.8-17.1-10.9L253,224.3c3.1,6.2,6.2,12.4,10.9,17.1L380.3,125.7z M328.3,107.1h-4.7l-78.4,78.4v4.7
		c0,7.8,1.6,15.5,3.1,22.5l102.4-102.4C343.8,107.9,336,107.1,328.3,107.1L328.3,107.1z M249.1,165.3l55.1-55.1
		C277.8,118.7,256.9,138.9,249.1,165.3z M408.2,209.5l-61.3,61.3C377.9,263.1,401.2,239,408.2,209.5z M693,350
		c0,189.3-153.7,343-343,343S7,539.3,7,350S160.7,7,350,7S693,160.7,693,350z M677.5,350c0-180.8-146.7-327.5-327.5-327.5
		S22.5,169.2,22.5,350S169.2,677.5,350,677.5S677.5,530.8,677.5,350z"/>
</g>
</svg>
